<?xml version="1.0" encoding="utf-8"?>
<!-- Generator: Adobe Illustrator 19.0.0, SVG Export Plug-In . SVG Version: 6.00 Build 0)  -->
<svg version="1.1" id="Layer_1" xmlns="http://www.w3.org/2000/svg" xmlns:xlink="http://www.w3.org/1999/xlink" x="0px" y="0px"
	 viewBox="0 0 1080 1080" style="enable-background:new 0 0 1080 1080;" xml:space="preserve">
<style type="text/css">
	.st0{fill:#1DAFEC;}
	.st1{fill:#FFFFFF;}
</style>
<rect class="st0" width="1080" height="1081"/>
<path class="st1" d="M211.1,459.7l-44.5,47.9l48.2,50.5v1.1h-23.3l-41.9-44.3v44.3h-18.9V459.2h18.9v42.3l38-42.3h23.4V459.7z"/>
<path class="st1" d="M272.4,488.8l1.3,8.1c5.4-8.7,12.7-10,19.9-10c7.3,0,14.3,2.9,18.2,6.7l-7.9,15.2c-3.6-3-6.9-4.6-12.6-4.6
	c-9.1,0-17.6,4.9-17.6,17.9v37.2h-17.4v-70.5H272.4z"/>
<path class="st1" d="M504.8,488.8l1.3,8.1c5.4-8.7,12.7-10,19.9-10c7.3,0,14.3,2.9,18.2,6.7l-7.9,15.2c-3.6-3-6.9-4.6-12.6-4.6
	c-9.1,0-17.6,4.9-17.6,17.9v37.2h-17.4v-70.5H504.8z"/>
<path class="st1" d="M607.6,488.8h16.7v70.5h-16.4l-0.9-10.3c-4,8.3-15,12.3-22.9,12.4c-20.9,0.1-36.3-12.7-36.3-37.5
	c0-24.3,16.2-37,36.7-36.9c9.4,0,18.4,4.4,22.4,11.4L607.6,488.8z M565.3,523.9c0,13.4,9.3,21.4,20.9,21.4c27.4,0,27.4-42.7,0-42.7
	C574.6,502.6,565.3,510.5,565.3,523.9z"/>
<path class="st1" d="M654.1,459.3v57.8l23.7-28.3h20.9v1L670,521.9l32.7,36v1.3h-21l-27.6-31.9v31.9h-17.4v-99.9H654.1z"/>
<path class="st1" d="M737.3,468.9v20h19.4v15h-19.6v30.5c0,6.7,3.7,10,9.1,10c2.7,0,5.9-0.9,8.4-2.1l4.9,14.9c-5,2-9.1,2.9-14.4,3
	c-15.3,0.6-25.3-8.1-25.3-25.7v-30.5h-13.2v-15h13.2v-18.2L737.3,468.9z"/>
<path class="st1" d="M789.8,468.9c0,13.6-20.6,13.6-20.6,0C769.2,455.3,789.8,455.3,789.8,468.9z M770.8,488.5v70.8h17.4v-70.8
	H770.8z"/>
<path class="st1" d="M819.9,459.3v57.8l23.7-28.3h20.9v1l-28.7,32.2l32.7,36v1.3h-21l-27.6-31.9v31.9h-17.4v-99.9H819.9z"/>
<path class="st1" d="M928.4,488.8h16.7v70.5h-16.4l-0.9-10.3c-4,8.3-15,12.3-22.9,12.4c-20.9,0.1-36.3-12.7-36.3-37.5
	c0-24.3,16.2-37,36.7-36.9c9.4,0,18.4,4.4,22.4,11.4L928.4,488.8z M886.1,523.9c0,13.4,9.3,21.4,20.9,21.4c27.4,0,27.4-42.7,0-42.7
	C895.4,502.6,886.1,510.5,886.1,523.9z"/>
<path class="st1" d="M244.1,468.9c0,13.6-20.6,13.6-20.6,0C223.5,455.3,244.1,455.3,244.1,468.9z M225.1,488.5v70.8h17.4v-70.8
	H225.1z"/>
<g>
	<path class="st1" d="M432.6,429.4c0,3.2-1.5,6.2-5.3,7.9c4.8,1.5,6.5,6.5,6.5,9.1c0,9.1-6.8,12-15.3,12c-6.5,0-12.9,0-19.4,0v-40.9
		c6.4,0,12.9,0,19.4,0C426.6,417.6,432.6,421.2,432.6,429.4z M406.8,434h11.8c4.8,0,6.4-2,6.4-4.4c0-1.9-1.5-5-6.4-5h-11.8V434z
		 M406.8,451.3h11.8c3.2,0,7.6-1.1,7.6-4.9c0-3.7-4.5-5.6-7.6-5.6h-11.8V451.3z"/>
	<path class="st1" d="M461.6,429.7h6.8v28.8h-6.7l-0.3-4.2c-1.6,3.4-6.1,5-9.3,5.1c-8.5,0.1-14.8-5.2-14.8-15.3
		c0-9.9,6.6-15.1,15-15.1c3.9,0,7.5,1.8,9.2,4.7L461.6,429.7z M444.3,444c0,5.5,3.8,8.8,8.5,8.8c11.2,0,11.2-17.5,0-17.5
		C448.1,435.3,444.3,438.5,444.3,444z"/>
	<path class="st1" d="M495.6,458.4v-15.1c0-4.4-2.4-7.7-6.9-7.7c-4.4,0-7.4,3.7-7.4,8.1v14.7h-7.1v-28.8h6.4l0.5,3.9
		c2.9-2.9,5.8-4.3,9.5-4.3c6.8,0,12.2,5.1,12.2,14.1v15.1H495.6z"/>
	<path class="st1" d="M538.7,417.6v40.8h-6.7l-0.5-4c-2.2,3.4-5.8,4.6-9.3,4.6c-8.5,0-14.8-5.6-14.8-15.1c0-9.9,6.2-15.1,14.7-15.1
		c3,0,7.8,1.6,9.5,4.6v-15.9H538.7z M514.6,444c0,5,3.6,8.5,8.2,8.5c4.5,0,8.3-3.3,8.3-8.5c0-5-3.9-8.4-8.3-8.4
		C518.3,435.6,514.6,438.8,514.6,444z"/>
	<path class="st1" d="M567.8,429.7h6.8v28.8h-6.7l-0.3-4.2c-1.6,3.4-6.1,5-9.3,5.1c-8.5,0.1-14.8-5.2-14.8-15.3
		c0-9.9,6.6-15.1,15-15.1c3.9,0,7.5,1.8,9.2,4.7L567.8,429.7z M550.5,444c0,5.5,3.8,8.8,8.5,8.8c11.2,0,11.2-17.5,0-17.5
		C554.3,435.3,550.5,438.5,550.5,444z"/>
	<path class="st1" d="M587.7,417.6v40.8h-7.1v-40.8H587.7z"/>
	<path class="st1" d="M622.5,444.1c0,8.3-5.7,15-15,15s-14.9-6.7-14.9-15c0-8.2,5.7-15,14.9-15C616.6,429.1,622.5,435.8,622.5,444.1
		z M599.7,444.1c0,4.4,2.6,8.5,7.8,8.5c5.2,0,7.8-4.1,7.8-8.5c0-4.3-3-8.5-7.8-8.5C602.4,435.6,599.7,439.8,599.7,444.1z"/>
</g>
<path class="st1" d="M399.3,588.7v-99.9h16.3l1.1,9.7c5.4-7.9,14.9-11.3,22.9-11.3c21.7,0,36.2,16.2,36.2,36.9
	c0,20.6-13,36.9-35.6,36.9c-7.4,0-18.4-2.3-23.4-10v37.7H399.3z M458.4,524.1c0-11-7.4-20-20-20s-20,9-20,20c0,11,8.1,20,20,20
	C450.2,544.1,458.4,535.1,458.4,524.1z"/>
<path class="st1" d="M351,487.3c-22.4,0-36.5,16.6-36.5,36.7c0,20.3,13.7,36.7,36.6,36.7s36.7-16.4,36.7-36.7
	C387.8,503.9,373.4,487.3,351,487.3z"/>
<path class="st1" d="M328.1,429.6c-4.9,14.2,1.1,27.1,14.8,32c13.4,4.8,27.1-1.9,31.8-15.6c4.4-12.6-2.6-26.6-15.5-31.2
	C346,410,332.7,416.3,328.1,429.6z"/>
<path class="st1" d="M389.7,610.6c5.2-14.3-2-29.9-16.1-34.8c-14-4.8-28.6,2.2-33.8,16.2c-5.5,14.7,1.2,28.8,16.2,34.3
	C370.4,631.5,384.5,624.9,389.7,610.6z"/>
<path class="st1" d="M402,672.3c4.4-11.9-1.4-24.9-13.2-29.2c-12-4.3-24.4,1.6-28.8,13.7c-4.4,12.2,1.3,24,13.8,28.4
	C385.8,689.5,397.7,684,402,672.3z"/>
<path class="st1" d="M347.9,396.6c12.2,4.6,25-0.9,29.6-12.9c4.5-11.6-1.6-24.6-13.7-29.4c-11.7-4.7-23.7,0.9-28.3,13
	C330.5,380.5,335.3,391.8,347.9,396.6z"/>
<path class="st1" d="M366,339.4c10.2,3.6,22.2-1.7,25.8-11.5c3.9-10.4-1.7-22.1-12.5-26.1c-10.4-3.8-21.3,1.6-25,12.3
	C350.6,324.9,355.5,335.7,366,339.4z"/>
<path class="st1" d="M354.3,715.4c-3.6,10.3,2.2,22.1,12.6,25.9c10.7,3.9,21.7-1.3,25.7-12.2c4-11-0.9-21.9-11.6-25.9
	C370,699,358.1,704.5,354.3,715.4z"/>
<path class="st1" d="M375.9,265.3c-3.9,9.6-0.1,19.3,9.1,23.1c9.5,3.9,20.5-0.5,23.9-9.6c3.6-9.5-1-20.1-10.3-23.8
	C389.7,251.4,379.7,256,375.9,265.3z"/>
<path class="st1" d="M374.6,780.2c4-9.9-0.4-20.3-10.2-24.3c-10.5-4.2-21.3,0.1-25.3,10c-4,10,1,20.7,11.4,24.6
	C360.5,794.4,370.6,790.1,374.6,780.2z"/>
<path class="st1" d="M399.9,208.2c-8-3.2-18,1.3-21.5,9.7c-3.4,8.2,0.4,17.2,8.8,20.7c8.7,3.7,18.5-0.2,21.7-8.6
	C412.1,221.8,407.8,211.5,399.9,208.2z"/>
<path class="st1" d="M340.9,801.4c-7.9-2.6-16.4,1.3-19.3,9c-3,7.8,1.2,17.2,9,20.2c7.7,3,17.1-1.5,19.9-9.4
	C353.3,813.1,348.8,804,340.9,801.4z"/>
</svg>
